<svg width="1600" height="900" viewBox="0 0 1600 900" fill="none" xmlns="http://www.w3.org/2000/svg">
<defs>
  <linearGradient id="bg" x1="0" y1="0" x2="1600" y2="900" gradientUnits="userSpaceOnUse">
    <stop stop-color="#22142B"/><stop offset="1" stop-color="#100918"/>
  </linearGradient>
  <radialGradient id="g1" cx="0" cy="0" r="1" gradientUnits="userSpaceOnUse" gradientTransform="translate(240 220) rotate(30) scale(360 260)">
    <stop stop-color="#FF8BC1" stop-opacity="0.55"/><stop offset="1" stop-color="#FF8BC1" stop-opacity="0"/>
  </radialGradient>
  <radialGradient id="g2" cx="0" cy="0" r="1" gradientUnits="userSpaceOnUse" gradientTransform="translate(1330 220) rotate(90) scale(360 300)">
    <stop stop-color="#C6A0FF" stop-opacity="0.45"/><stop offset="1" stop-color="#C6A0FF" stop-opacity="0"/>
  </radialGradient>
  <radialGradient id="g3" cx="0" cy="0" r="1" gradientUnits="userSpaceOnUse" gradientTransform="translate(800 650) rotate(90) scale(420 260)">
    <stop stop-color="#FFD7E8" stop-opacity="0.18"/><stop offset="1" stop-color="#FFD7E8" stop-opacity="0"/>
  </radialGradient>
  <linearGradient id="frame" x1="520" y1="160" x2="1080" y2="700" gradientUnits="userSpaceOnUse">
    <stop stop-color="#FFD0E5"/><stop offset="1" stop-color="#B790FF"/>
  </linearGradient>
  <filter id="shadow" x="410" y="110" width="780" height="710" filterUnits="userSpaceOnUse" color-interpolation-filters="sRGB">
    <feDropShadow dx="0" dy="26" stdDeviation="28" flood-color="#000000" flood-opacity="0.28"/>
  </filter>
</defs>
<rect width="1600" height="900" fill="url(#bg)"/>
<rect width="1600" height="900" fill="url(#g1)"/>
<rect width="1600" height="900" fill="url(#g2)"/>
<rect width="1600" height="900" fill="url(#g3)"/>
<g filter="url(#shadow)">
  <rect x="470" y="150" width="660" height="620" rx="34" fill="#181120" stroke="url(#frame)" stroke-width="4"/>
  <rect x="510" y="190" width="580" height="540" rx="28" fill="rgba(255,255,255,0.05)"/>
</g>
<circle cx="800" cy="405" r="142" fill="#2C1937" stroke="url(#frame)" stroke-width="3"/>
<circle cx="800" cy="405" r="102" fill="#321E40"/>
<path d="M741 589C763 543 837 543 859 589C821 625 778 625 741 589Z" fill="#FFD8E9" fill-opacity="0.2"/>
<path d="M772 359C772 327 788 304 800 304C812 304 828 327 828 359C828 392 814 414 800 414C786 414 772 392 772 359Z" fill="#FFD8E9" fill-opacity="0.14"/>
<g opacity="0.95">
  <path d="M800 249C834 195 912 194 940 246C960 285 944 334 897 380C857 418 812 449 800 460C788 449 743 418 703 380C656 334 640 285 660 246C688 194 766 195 800 249Z" fill="#FF7AB7"/>
  <path d="M801 279C824 244 876 244 895 278C909 302 897 334 867 364C842 391 811 414 801 422C791 414 760 391 735 364C705 334 693 302 707 278C726 244 778 244 801 279Z" fill="#FFD6E8"/>
</g>
<text x="800" y="818" fill="#F8EAF3" fill-opacity="0.94" font-family="Georgia, 'Times New Roman', serif" font-size="30" text-anchor="middle">Replace this sample cover later if you want</text>
</svg>